<?xml version="1.0" encoding="utf-8"?>
<!-- Generator: Adobe Illustrator 19.0.0, SVG Export Plug-In . SVG Version: 6.00 Build 0)  -->
<svg version="1.1" id="Capa_1" xmlns="http://www.w3.org/2000/svg" xmlns:xlink="http://www.w3.org/1999/xlink" x="0px" y="0px"
	 viewBox="0 0 356.2 111.9" style="enable-background:new 0 0 356.2 111.9;" xml:space="preserve">
<style type="text/css">
	.st0{fill:#E67E22;}
</style>
<g id="XMLID_3_">
	<path id="XMLID_4_" class="st0" d="M-0.3,85.8L22.1,6l29,1.8l15.5,78.1l-10.7,1.8l-8.3-19.9l-31.9,2.6l-4.1,17.3L-0.3,85.8z
		 M27.3,21.1l-9.5,40l27.1,0.3L28.2,21.1H27.3z"/>
	<path id="XMLID_7_" class="st0" d="M81.7,87.6L75.7,4l25.6-4l-7.8,86.6L81.7,87.6z"/>
	<path id="XMLID_9_" class="st0" d="M161.3,23c1.5,0,2.9,0.3,4.4,0.9c2.9,3.4,5.3,8.6,7,15.5c1.8,6.9,2.6,14.6,2.6,23.1
		s-1.9,15-5.6,19.5c-3.7,4.5-10.2,6.7-19.3,6.7c-6.5,0-12.7-1.4-18.5-4.1l-3.4,26.1l-11.1,1.2l-3.7-83.8l25.6-4l-2.6,21.1h0.9
		c3.2-6.8,6.9-12.3,10.9-16.3C152.7,25,156.9,23,161.3,23z M145.7,81.3c2.9,0,5.5-0.5,7.6-1.6c1.2-6.2,1.8-12,1.8-17.6
		c0-11.8-0.8-20.1-2.3-24.8c-1.8,0.7-3.1,1.3-4,1.8c-0.9,0.5-2.3,1.6-4.2,3.4c-5.7,5.3-9.6,16.7-11.7,34.4
		C136.4,79.8,140.7,81.3,145.7,81.3z"/>
	<path id="XMLID_12_" class="st0" d="M196,88.6c-1.4,0-2.3-0.1-2.9-0.1c-2.7-1.9-4.9-4.6-6.5-8.2c-1.6-3.6-2.4-7.7-2.4-12.2
		s1.9-8,5.8-10.3c3.9-2.3,11-3.4,21.3-3.4c3.8,0,7.9,0.2,12.2,0.7l-0.3-2.6c-0.3-3.2-1.8-5.8-4.5-7.6c-2.7-1.9-6.2-2.8-10.5-2.8
		s-8.5,1.3-12.7,4l-5.3-17.3c6.8-2.8,14.6-4.2,23.4-4.2s15.7,2,20.9,5.9s7.7,10.1,7.7,18.5c0,2-0.1,3.5-0.3,4.5l-3.2,33.1l-12,1
		l-1.8-17.3H224c-2.7,5.8-6.5,10.3-11.4,13.5S202.3,88.6,196,88.6z M223.8,60.2l-6.3-0.1c-5.3,0-9.6,0.3-13,0.9
		c-1.1,2.2-1.6,4.2-1.6,6s0.2,3.4,0.7,5.1s1,2.7,1.5,3.1C214.7,73.7,220.9,68.7,223.8,60.2z"/>
	<path id="XMLID_15_" class="st0" d="M271.2,78.2c7.6,0,14.8-1.3,21.7-3.8l3.7,11.6c-5.7,1.9-11.6,2.8-17.7,2.8s-11.6-0.7-16.3-2
		c-4.7-1.3-8.3-3.1-10.6-5.2c-1.2-5.8-1.8-11.1-1.9-16c0-10,2.3-19,6.8-27.2s9.7-14,15.6-17.3l20.8,13.6
		c-10.1,5.5-18,11.9-23.8,19.4c-5.8,7.5-8.7,15.3-8.7,23.4C264,78,267.6,78.2,271.2,78.2z"/>
	<path id="XMLID_17_" class="st0" d="M309.7,88.6c-1.4,0-2.3-0.1-2.9-0.1c-2.7-1.9-4.9-4.6-6.5-8.2c-1.6-3.6-2.4-7.7-2.4-12.2
		s1.9-8,5.8-10.3c3.9-2.3,11-3.4,21.3-3.4c3.8,0,7.9,0.2,12.2,0.7l-0.3-2.6c-0.3-3.2-1.8-5.8-4.5-7.6c-2.7-1.9-6.2-2.8-10.5-2.8
		s-8.5,1.3-12.7,4l-5.3-17.3c6.8-2.8,14.6-4.2,23.4-4.2s15.7,2,20.9,5.9s7.7,10.1,7.7,18.5c0,2-0.1,3.5-0.3,4.5l-3.2,33.1l-12,1
		l-1.8-17.3h-0.9c-2.7,5.8-6.5,10.3-11.4,13.5S316,88.6,309.7,88.6z M337.6,60.2l-6.3-0.1c-5.3,0-9.6,0.3-13,0.9
		c-1.1,2.2-1.6,4.2-1.6,6s0.2,3.4,0.7,5.1s1,2.7,1.5,3.1C328.4,73.7,334.6,68.7,337.6,60.2z"/>
</g>
</svg>
